<svg xmlns="http://www.w3.org/2000/svg" viewBox="0 0 32 32" shape-rendering="crispEdges">
  <rect width="32" height="32" fill="#0b0d0a"/>
  <g fill="#7cff5e">
    <rect x="10" y="4" width="12" height="2" />
    <rect x="8" y="6" width="2" height="2" />
    <rect x="22" y="6" width="2" height="2" />
    <rect x="6" y="8" width="2" height="10" />
    <rect x="24" y="8" width="2" height="10" />
    <rect x="8" y="18" width="2" height="2" />
    <rect x="22" y="18" width="2" height="2" />
    <rect x="10" y="20" width="4" height="2" />
    <rect x="18" y="20" width="4" height="2" />
    <rect x="10" y="22" width="2" height="4" />
    <rect x="20" y="22" width="2" height="4" />
    <rect x="12" y="24" width="2" height="4" />
    <rect x="18" y="24" width="2" height="4" />
    <rect x="8" y="8" width="16" height="10" />
  </g>
  <g fill="#0b0d0a">
    <rect x="11" y="11" width="3" height="4" />
    <rect x="18" y="11" width="3" height="4" />
    <rect x="15" y="15" width="2" height="2" />
    <rect x="12" y="18" width="8" height="1.5" />
  </g>
</svg>
